<?xml version="1.0" standalone="no"?>
<!DOCTYPE svg PUBLIC "-//W3C//DTD SVG 20010904//EN"
 "http://www.w3.org/TR/2001/REC-SVG-20010904/DTD/svg10.dtd">
<svg version="1.0" xmlns="http://www.w3.org/2000/svg"
 width="461.000000pt" height="461.000000pt" viewBox="0 0 461.000000 461.000000"
 preserveAspectRatio="xMidYMid meet">
<metadata>
Created by potrace 1.11, written by Peter Selinger 2001-2013
</metadata>
<g transform="translate(0.000000,461.000000) scale(0.100000,-0.100000)"
fill="#000000" stroke="none">
<path d="M2308 4565 c-2 -1 -61 -5 -133 -9 -71 -3 -146 -8 -165 -11 -521 -78
-940 -284 -1298 -638 -357 -352 -580 -800 -652 -1312 -22 -152 -20 -453 4
-620 42 -292 167 -632 322 -875 176 -276 416 -519 688 -695 99 -65 280 -160
371 -195 33 -12 74 -28 90 -35 74 -31 338 -98 427 -109 18 -2 62 -8 98 -12 36
-4 142 -8 235 -8 188 0 268 6 400 30 11 2 36 7 55 10 106 19 347 94 450 141
198 89 430 232 554 342 319 284 522 569 663 936 43 113 87 273 107 390 9 50
18 106 22 125 10 58 13 439 3 520 -16 142 -20 165 -54 301 -160 644 -588 1183
-1175 1478 -63 31 -142 68 -175 80 -33 13 -69 27 -80 31 -64 28 -264 81 -350
94 -39 6 -71 11 -130 21 -16 3 -70 7 -120 11 -49 3 -105 7 -122 8 -18 2 -34 2
-35 1z m147 -259 c50 -4 101 -9 115 -11 14 -3 41 -7 60 -10 105 -16 305 -72
417 -117 461 -183 845 -543 1063 -993 93 -193 146 -367 183 -600 14 -87 17
-470 5 -520 -3 -11 -9 -42 -12 -70 -32 -220 -138 -510 -264 -720 -39 -65 -132
-196 -165 -233 l-21 -23 -818 818 c-677 677 -818 823 -818 845 0 31 -41 68
-68 61 -10 -2 -27 6 -41 21 l-23 24 43 59 c23 32 45 60 48 63 4 3 19 23 35 45
68 92 276 290 372 352 11 7 36 24 58 38 86 58 310 155 355 155 6 0 11 -11 11
-24 0 -14 5 -28 10 -31 6 -3 10 -15 10 -25 0 -25 56 -70 86 -70 31 0 64 33 64
64 0 14 -10 37 -23 52 -20 22 -32 27 -80 28 -31 0 -57 4 -57 9 0 4 8 7 18 8 9
0 24 2 32 4 51 11 80 14 146 16 69 2 74 3 74 24 0 21 -3 22 -82 19 -395 -16
-793 -264 -1103 -687 l-50 -68 -27 33 c-15 18 -33 38 -40 44 -52 47 -958 950
-958 954 0 7 155 122 220 162 184 116 402 207 615 258 106 25 180 36 310 46
44 4 81 7 82 8 4 3 136 -2 218 -8z m-1145 -1129 c431 -431 458 -460 449 -484
-14 -36 13 -83 66 -115 l45 -27 6 24 c3 14 10 23 14 20 4 -3 -23 -67 -60 -142
-84 -169 -136 -299 -205 -509 -44 -134 -94 -314 -111 -399 -2 -11 -10 -54 -19
-95 -8 -41 -17 -88 -19 -105 -24 -143 -36 -231 -41 -290 -4 -38 -8 -81 -11
-95 -2 -14 -7 -85 -10 -157 -7 -131 -6 -133 15 -133 19 0 21 6 22 53 1 28 2
63 4 77 1 14 5 68 9 120 4 52 9 104 11 115 2 11 7 47 10 80 7 64 52 338 61
367 3 10 8 30 10 45 29 164 152 556 226 723 94 210 144 301 163 294 11 -5 10
-14 -7 -50 -12 -24 -19 -46 -16 -49 3 -3 33 -6 67 -7 l62 -2 805 -804 805
-805 -23 -25 c-13 -13 -66 -56 -118 -96 -253 -191 -525 -314 -830 -375 -96
-20 -104 -21 -180 -28 -135 -13 -481 -5 -509 11 -3 2 -26 7 -51 10 -139 18
-366 93 -535 176 -386 190 -706 505 -900 885 -117 231 -174 416 -212 691 -14
103 -6 494 11 523 2 3 6 29 10 56 3 28 13 77 22 110 8 33 18 70 20 83 10 52
85 244 131 337 82 164 190 328 286 432 33 35 42 41 54 31 8 -7 221 -219 473
-471z"/>
<path d="M3084 3735 c-16 -7 -35 -24 -42 -39 -15 -33 -16 -126 -1 -126 30 0
111 46 123 69 34 66 -14 124 -80 96z"/>
<path d="M3275 3733 c-31 -8 -46 -24 -66 -71 -28 -64 -26 -68 31 -71 72 -3
120 28 120 78 0 47 -37 75 -85 64z"/>
<path d="M2868 3690 c-27 -27 -29 -35 -23 -68 4 -20 13 -52 21 -70 l14 -33 41
33 c65 52 78 111 33 147 -36 28 -50 26 -86 -9z"/>
<path d="M2703 3637 c-46 -26 -56 -83 -25 -150 l17 -38 37 28 c21 15 44 42 53
60 14 28 14 36 1 66 -15 37 -50 52 -83 34z"/>
<path d="M3355 3604 c-67 -46 -75 -56 -63 -71 24 -30 89 -55 124 -48 58 10 81
80 38 116 -20 17 -77 19 -99 3z"/>
<path d="M2512 3517 c-13 -13 -22 -36 -22 -54 0 -32 17 -92 31 -107 13 -14 96
59 102 91 6 30 -8 73 -26 85 -23 15 -64 8 -85 -15z"/>
<path d="M3203 3484 c3 -11 11 -38 17 -62 13 -50 45 -75 91 -70 24 2 38 11 49
30 13 25 13 31 -4 62 -22 41 -32 46 -105 53 -49 5 -53 4 -48 -13z"/>
<path d="M2831 3421 c-36 -10 -36 -23 1 -71 50 -65 120 -73 146 -16 12 27 -7
80 -33 90 -21 8 -82 6 -114 -3z"/>
<path d="M2317 3393 c-29 -33 -27 -76 4 -127 16 -25 33 -46 37 -46 4 0 22 19
40 42 36 46 41 90 16 126 -19 27 -74 30 -97 5z"/>
<path d="M2683 3349 c-37 -11 -40 -23 -15 -60 28 -42 49 -59 81 -65 73 -15
113 70 55 115 -28 22 -68 25 -121 10z"/>
<path d="M2585 3272 c-28 -6 -107 -71 -99 -83 11 -18 83 -49 114 -49 34 0 80
38 80 65 0 43 -49 77 -95 67z"/>
<path d="M2135 3230 c-22 -24 -22 -73 -1 -105 18 -28 57 -65 67 -65 12 0 49
89 49 120 0 61 -76 94 -115 50z"/>
<path d="M2415 3141 c-16 -10 -41 -30 -54 -44 l-23 -26 52 -26 c61 -31 110
-28 135 8 21 31 19 54 -10 82 -29 30 -59 32 -100 6z"/>
<path d="M2002 3090 c-15 -14 -22 -33 -22 -57 0 -30 8 -43 42 -75 23 -21 47
-38 54 -38 16 0 38 72 35 115 -1 33 -41 75 -70 75 -9 0 -27 -9 -39 -20z"/>
<path d="M2285 3008 c-30 -16 -75 -60 -75 -73 0 -6 22 -21 50 -33 57 -25 103
-21 125 12 44 62 -31 133 -100 94z"/>
<path d="M2185 2864 c-16 -9 -43 -31 -58 -50 l-29 -34 47 -20 c58 -25 96 -25
123 -2 35 30 38 67 8 96 -29 30 -49 32 -91 10z"/>
<path d="M1670 2530 c-40 -40 -15 -104 54 -140 25 -14 47 -22 50 -19 3 3 9 33
12 66 6 57 5 63 -19 87 -31 31 -70 33 -97 6z"/>
<path d="M1882 2373 c-27 -22 -66 -119 -52 -128 11 -7 97 1 123 10 8 4 23 22
32 42 16 34 16 37 -2 62 -25 32 -71 39 -101 14z"/>
<path d="M1568 2323 c-41 -48 -21 -104 47 -133 71 -31 75 -29 75 39 0 48 -4
63 -25 85 -28 31 -74 35 -97 9z"/>
<path d="M1800 2182 c-28 -13 -39 -28 -52 -67 -9 -27 -17 -53 -17 -57 -1 -5
25 -8 58 -8 48 0 63 4 85 25 26 24 34 67 18 91 -6 10 -45 34 -54 34 -2 0 -19
-8 -38 -18z"/>
<path d="M1488 2088 c-38 -13 -49 -69 -21 -106 19 -25 108 -70 119 -60 11 11
5 116 -7 136 -18 29 -57 41 -91 30z"/>
<path d="M1717 2000 c-21 -17 -57 -93 -57 -122 0 -13 92 -9 120 5 56 28 65
102 15 125 -36 16 -48 15 -78 -8z"/>
<path d="M1430 1857 c-31 -16 -43 -62 -25 -97 15 -28 65 -58 106 -62 23 -3 24
0 23 58 -1 66 -12 86 -57 103 -16 6 -32 5 -47 -2z"/>
<path d="M1710 1813 c-44 -13 -61 -30 -80 -80 -11 -30 -20 -56 -20 -58 0 -3
26 -5 59 -5 48 0 63 4 85 25 53 49 20 136 -44 118z"/>
</g>
</svg>
